# Blender v2.82 (sub 7) OBJ File: 'alembic.blend'
# www.blender.org
mtllib chymical_alembic.mtl
usemtl alembic_texture
o alembic
v -0.000000 0.437499 1.000000
v 0.000000 -0.249999 1.000000
v 0.125000 0.437499 0.000000
v 0.125000 -0.249999 0.000000
v -0.125000 0.437499 0.000000
v -0.125000 -0.249999 0.000000
v -0.250000 0.067500 0.250000
v -0.250000 0.500000 0.250000
v -0.250000 0.067500 -0.250000
v -0.250000 0.500000 -0.250000
v 0.250000 0.067500 0.250000
v 0.250000 0.500000 0.250000
v 0.250000 0.067500 -0.250000
v 0.250000 0.500000 -0.250000
v -0.250000 -0.375000 0.250000
v -0.250000 -0.250000 0.250000
v -0.250000 -0.375000 -0.250000
v -0.250000 -0.250000 -0.250000
v 0.250000 -0.375000 0.250000
v 0.250000 -0.250000 0.250000
v 0.250000 -0.375000 -0.250000
v 0.250000 -0.250000 -0.250000
v -0.187500 -0.250000 0.187500
v -0.187500 0.067500 0.187500
v -0.187500 -0.250000 -0.187500
v -0.187500 0.067500 -0.187500
v 0.187500 -0.250000 0.187500
v 0.187500 0.067500 0.187500
v 0.187500 -0.250000 -0.187500
v 0.187500 0.067500 -0.187500
v -0.000000 0.437499 1.000000
v 0.000000 -0.249999 1.000000
v 0.125000 0.437499 0.000000
v 0.125000 -0.249999 0.000000
v -0.125000 0.437499 0.000000
v -0.125000 -0.249999 0.000000
vt 1.000000 0.000000
vt 0.500000 0.343750
vt 1.000000 0.343750
vt 0.500000 0.000000
vt 1.000000 0.343750
vt 0.500000 0.343750
vt 0.250000 0.531250
vt 0.000000 0.312500
vt 0.250000 0.312500
vt 0.250000 0.312500
vt 0.000000 0.093750
vt 0.250000 0.093750
vt 0.250000 0.750000
vt 0.000000 0.531250
vt 0.250000 0.531250
vt 0.250000 0.750000
vt 0.000000 1.000000
vt 0.000000 0.750000
vt 1.000000 0.750000
vt 0.750000 0.687500
vt 1.000000 0.687500
vt 1.000000 0.750000
vt 0.750000 0.687500
vt 1.000000 0.687500
vt 1.000000 0.750000
vt 0.750000 0.687500
vt 0.999999 0.687500
vt 1.000000 0.750000
vt 0.750000 0.687500
vt 1.000000 0.687500
vt 1.000000 0.750000
vt 0.750000 1.000000
vt 0.750000 0.750000
vt 0.750000 0.750000
vt 0.500000 1.000000
vt 0.500000 0.750000
vt 0.468750 0.156250
vt 0.281250 0.000000
vt 0.468750 0.000000
vt 0.468750 0.156250
vt 0.281250 0.000000
vt 0.468750 0.000000
vt 0.468750 0.156250
vt 0.281250 0.000000
vt 0.468750 0.000000
vt 0.468750 0.156250
vt 0.281250 0.000000
vt 0.468750 0.000000
vt 0.500000 0.531250
vt 0.250000 0.750000
vt 0.250000 0.531250
vt 1.000000 0.687500
vt 0.500000 0.343750
vt 1.000000 0.343750
vt 0.500000 0.343750
vt 0.500000 0.687500
vt 0.500000 0.000000
vt 0.000000 0.531250
vt 0.000000 0.312500
vt 0.000000 0.750000
vt 0.250000 1.000000
vt 0.750000 0.750000
vt 0.749999 0.750000
vt 0.750000 0.750000
vt 1.000000 1.000000
vt 0.750000 1.000000
vt 0.281250 0.156250
vt 0.281250 0.156250
vt 0.281250 0.156250
vt 0.281250 0.156250
vt 0.500000 0.750000
vt 0.500000 0.687500
vt 1.000000 0.343750
vn 0.9923 0.0000 0.1240
vn -0.9923 -0.0000 0.1240
vn -1.0000 0.0000 0.0000
vn 0.0000 0.0000 -1.0000
vn 1.0000 0.0000 0.0000
vn 0.0000 1.0000 0.0000
vn 0.0000 0.0000 1.0000
vn 0.0000 -1.0000 0.0000
vn -0.9923 -0.0000 -0.1240
vn 0.9923 0.0000 -0.1240
f 2/1/1 3/2/1 1/3/1
f 6/4/2 1/5/2 5/6/2
f 8/7/3 9/8/3 7/9/3
f 10/10/4 13/11/4 9/12/4
f 14/13/5 11/14/5 13/15/5
f 10/16/6 12/17/6 14/18/6
f 16/19/3 17/20/3 15/21/3
f 18/22/4 21/23/4 17/24/4
f 22/25/5 19/26/5 21/27/5
f 20/28/7 15/29/7 19/30/7
f 21/31/8 15/32/8 17/33/8
f 18/34/6 20/35/6 22/36/6
f 24/37/3 25/38/3 23/39/3
f 26/40/4 29/41/4 25/42/4
f 30/43/5 27/44/5 29/45/5
f 28/46/7 23/47/7 27/48/7
f 11/49/7 8/50/7 7/51/7
f 31/52/9 34/53/9 32/54/9
f 31/52/10 36/55/10 35/56/10
f 2/1/1 4/57/1 3/2/1
f 6/4/2 2/1/2 1/5/2
f 8/7/3 10/58/3 9/8/3
f 10/10/4 14/59/4 13/11/4
f 14/13/5 12/60/5 11/14/5
f 10/16/6 8/61/6 12/17/6
f 16/19/3 18/34/3 17/20/3
f 18/22/4 22/62/4 21/23/4
f 22/25/5 20/63/5 19/26/5
f 20/28/7 16/64/7 15/29/7
f 21/31/8 19/65/8 15/32/8
f 18/34/6 16/66/6 20/35/6
f 24/37/3 26/67/3 25/38/3
f 26/40/4 30/68/4 29/41/4
f 30/43/5 28/69/5 27/44/5
f 28/46/7 24/70/7 23/47/7
f 11/49/7 12/71/7 8/50/7
f 31/52/9 33/72/9 34/53/9
f 31/52/10 32/73/10 36/55/10
