# Blender v2.82 (sub 7) OBJ File: 'alembic.blend'
# www.blender.org
mtllib block/obj_textures.mtl
usemtl alembic_texture
o alembic
v 0.250000 0.442500 0.750000
v 0.250000 0.875000 0.750000
v 0.250000 0.442500 0.250000
v 0.250000 0.875000 0.250000
v 0.750000 0.442500 0.750000
v 0.750000 0.875000 0.750000
v 0.750000 0.442500 0.250000
v 0.750000 0.875000 0.250000
v 0.250000 0.125000 0.750000
v 0.250000 0.250000 0.750000
v 0.250000 0.125000 0.250000
v 0.250000 0.250000 0.250000
v 0.750000 0.125000 0.750000
v 0.750000 0.250000 0.750000
v 0.750000 0.125000 0.250000
v 0.750000 0.250000 0.250000
v 0.312500 0.250000 0.687500
v 0.312500 0.442500 0.687500
v 0.312500 0.250000 0.312500
v 0.312500 0.442500 0.312500
v 0.687500 0.250000 0.687500
v 0.687500 0.442500 0.687500
v 0.687500 0.250000 0.312500
v 0.687500 0.442500 0.312500
vt 0.250000 0.531250
vt 0.250000 0.750000
vt 0.000000 0.750000
vt 0.000000 0.531250
vt 0.250000 0.531250
vt 0.250000 0.750000
vt 0.000000 0.750000
vt 0.000000 0.531250
vt 0.250000 0.531250
vt 0.250000 0.750000
vt 0.000000 0.750000
vt 0.000000 0.531250
vt 0.250000 0.531250
vt 0.250000 0.750000
vt 0.000000 0.750000
vt 0.000000 0.531250
vt 0.250000 1.000000
vt 0.000000 1.000000
vt 0.500000 0.687500
vt 0.500000 0.750000
vt 0.250000 0.750000
vt 0.250000 0.687500
vt 0.500000 0.687500
vt 0.500000 0.750000
vt 0.250000 0.750000
vt 0.250000 0.687500
vt 0.500000 0.687500
vt 0.500000 0.750000
vt 0.250000 0.750000
vt 0.250000 0.687500
vt 0.500000 0.687500
vt 0.500000 0.750000
vt 0.250000 0.750000
vt 0.250000 0.687500
vt 0.250000 0.437500
vt 0.500000 0.437500
vt 0.500000 1.000000
vt 0.250000 1.000000
vt 0.218750 0.437500
vt 0.218750 0.531250
vt 0.031250 0.531250
vt 0.031250 0.437500
vt 0.218750 0.437500
vt 0.218750 0.531250
vt 0.031250 0.531250
vt 0.031250 0.437500
vt 0.218750 0.437500
vt 0.218750 0.531250
vt 0.031250 0.531250
vt 0.031250 0.437500
vt 0.218750 0.437500
vt 0.218750 0.531250
vt 0.031250 0.531250
vt 0.031250 0.437500
vn -1.0000 0.0000 0.0000
vn 0.0000 0.0000 -1.0000
vn 1.0000 0.0000 0.0000
vn 0.0000 0.0000 1.0000
vn 0.0000 1.0000 0.0000
vn 0.0000 -1.0000 0.0000
f 1/1/1 2/2/1 4/3/1 3/4/1
f 3/5/2 4/6/2 8/7/2 7/8/2
f 7/9/3 8/10/3 6/11/3 5/12/3
f 5/13/4 6/14/4 2/15/4 1/16/4
f 8/7/5 4/6/5 2/17/5 6/18/5
f 9/19/1 10/20/1 12/21/1 11/22/1
f 11/23/2 12/24/2 16/25/2 15/26/2
f 15/27/3 16/28/3 14/29/3 13/30/3
f 13/31/4 14/32/4 10/33/4 9/34/4
f 11/35/6 15/36/6 13/31/6 9/34/6
f 16/25/5 12/24/5 10/37/5 14/38/5
f 17/39/1 18/40/1 20/41/1 19/42/1
f 19/43/2 20/44/2 24/45/2 23/46/2
f 23/47/3 24/48/3 22/49/3 21/50/3
f 21/51/4 22/52/4 18/53/4 17/54/4
