# Blender v2.82 (sub 7) OBJ File: 'copper_crucible.blend'
# www.blender.org
mtllib copper_crucible.mtl
usemtl copper_crucible_texture
o copper_crucible
v 0.437500 0.312500 -0.437500
v 0.375000 -0.437500 -0.375000
v 0.437500 0.312500 0.437500
v 0.375000 -0.437500 0.375000
v -0.437500 0.312500 -0.437500
v -0.375000 -0.437500 -0.375000
v -0.437500 0.312500 0.437500
v -0.375000 -0.437500 0.375000
v 0.187500 0.500000 -0.187500
v 0.187500 0.500000 0.187500
v -0.187500 0.500000 -0.187500
v -0.187500 0.500000 0.187500
v 0.187500 0.750000 -0.187500
v 0.187500 0.750000 0.187500
v -0.187500 0.750000 -0.187500
v -0.187500 0.750000 0.187500
v 0.218750 0.625000 -0.218750
v 0.218750 0.625000 0.218750
v -0.218750 0.625000 -0.218750
v -0.218750 0.625000 0.218750
v 0.218750 0.750000 -0.218750
v 0.218750 0.750000 0.218750
v -0.218750 0.750000 -0.218750
v -0.218750 0.750000 0.218750
v -0.437500 -0.375125 0.437500
v -0.437500 -0.375125 -0.437500
v 0.437500 -0.375125 0.437500
v 0.437500 -0.375125 -0.437500
v -0.437500 -0.500412 0.437500
v -0.437500 -0.500412 -0.437500
v 0.437500 -0.500412 0.437500
v 0.437500 -0.500412 -0.437500
v 0.375000 0.312500 -0.365625
v 0.321428 -0.375000 -0.321428
v 0.375000 0.312500 0.365625
v 0.321428 -0.375000 0.321429
v -0.375000 0.312500 -0.365625
v -0.321429 -0.375000 -0.321428
v -0.375000 0.312500 0.365625
v -0.321429 -0.375000 0.321429
v 0.185937 0.437500 -0.185937
v 0.185937 0.437500 0.185938
v -0.185937 0.437500 -0.185937
v -0.185937 0.437500 0.185938
v 0.185937 0.750000 -0.185937
v 0.185937 0.750000 0.185938
v -0.185937 0.750000 -0.185937
v -0.185937 0.750000 0.185938
vt 0.437471 0.812374
vt 0.030388 0.469121
vt 0.406271 0.468885
vt 0.437471 0.812511
vt 0.031385 0.468821
vt 0.406190 0.468821
vt 0.437422 0.812450
vt 0.031308 0.468829
vt 0.406287 0.468829
vt 0.437471 0.812471
vt 0.031385 0.468821
vt 0.406190 0.468821
vt 0.437528 0.812796
vt 0.125017 0.999991
vt 0.000030 0.812796
vt 0.437528 0.812796
vt 0.125114 0.999991
vt 0.000030 0.812796
vt 0.625000 0.812500
vt 0.437500 0.937500
vt 0.437500 0.812500
vt 0.625000 0.812500
vt 0.437500 0.937500
vt 0.437500 0.812500
vt 0.437528 0.812796
vt 0.125114 0.999991
vt 0.000030 0.812796
vt 0.437528 0.812796
vt 0.125017 0.999991
vt 0.000030 0.812796
vt 0.625000 0.812500
vt 0.437500 0.937500
vt 0.437500 0.812500
vt 0.625000 0.812500
vt 0.437500 0.937500
vt 0.437500 0.812500
vt 0.031250 0.062500
vt 0.406250 0.437500
vt 0.031250 0.437500
vt 0.625000 0.937500
vt 0.437500 1.000000
vt 0.437500 0.937500
vt 0.625000 0.937500
vt 0.437500 1.000000
vt 0.437500 0.937500
vt 0.625000 0.937500
vt 0.437500 1.000000
vt 0.437500 0.937500
vt 0.625000 0.937500
vt 0.437500 1.000000
vt 0.437500 0.937500
vt 0.468750 0.062501
vt 0.906250 0.000030
vt 0.906250 0.062501
vt 0.468767 0.000010
vt 0.468767 0.062537
vt 0.906250 0.062501
vt 0.468750 0.000030
vt 0.468750 0.062501
vt 0.906250 0.000049
vt 0.906250 0.062501
vt 0.467888 0.469121
vt 0.812471 0.812374
vt 0.781271 0.468885
vt 0.468885 0.468821
vt 0.812471 0.812511
vt 0.781190 0.468821
vt 0.468808 0.468829
vt 0.812422 0.812450
vt 0.781286 0.468829
vt 0.468885 0.468821
vt 0.812471 0.812471
vt 0.781190 0.468821
vt 0.812500 0.937500
vt 0.625000 0.812500
vt 0.812500 0.812500
vt 0.812500 0.937500
vt 0.625000 0.812500
vt 0.812500 0.812500
vt 0.625000 0.937500
vt 0.625000 0.937500
vt 0.750000 0.468750
vt 0.437500 0.156250
vt 0.437500 0.468750
vt 0.000000 0.031250
vt 0.437500 0.468750
vt 0.000000 0.468750
vt 0.000318 0.812374
vt 0.000087 0.812511
vt 0.000027 0.812450
vt 0.000087 0.812471
vt 0.312444 0.999991
vt 0.312541 0.999991
vt 0.625000 0.937500
vt 0.625000 0.937500
vt 0.312541 0.999991
vt 0.312444 0.999991
vt 0.625000 0.937500
vt 0.625000 0.937500
vt 0.406250 0.062500
vt 0.625000 1.000000
vt 0.625000 1.000000
vt 0.625000 1.000000
vt 0.625000 1.000000
vt 0.468750 0.000049
vt 0.906250 0.000049
vt 0.437818 0.812374
vt 0.437587 0.812511
vt 0.437527 0.812450
vt 0.437587 0.812471
vt 0.750000 0.156250
vt 0.437500 0.031250
vn 0.0000 -0.0830 0.9965
vn 0.0000 -0.0830 -0.9965
vn -0.9965 -0.0830 0.0000
vn 0.9965 -0.0830 0.0000
vn 0.0000 0.8000 -0.6000
vn 0.6000 0.8000 0.0000
vn 0.0000 0.0000 1.0000
vn 0.0000 0.0000 -1.0000
vn 0.0000 0.8000 0.6000
vn -0.6000 0.8000 0.0000
vn -1.0000 0.0000 0.0000
vn 1.0000 0.0000 0.0000
vn 0.0000 -1.0000 0.0000
vn 0.0000 0.0642 -0.9979
vn 0.0000 0.0642 0.9979
vn 0.9970 0.0777 0.0000
vn -0.9970 0.0777 0.0000
vn 0.0000 1.0000 0.0000
f 3/1/1 8/2/1 4/3/1
f 5/4/2 2/5/2 6/6/2
f 7/7/3 6/8/3 8/9/3
f 1/10/4 4/11/4 2/12/4
f 5/13/5 9/14/5 1/15/5
f 1/16/6 10/17/6 3/18/6
f 10/19/7 16/20/7 12/21/7
f 11/22/8 13/23/8 9/24/8
f 3/25/9 12/26/9 7/27/9
f 7/28/10 11/29/10 5/30/10
f 12/31/11 15/32/11 11/33/11
f 9/34/12 14/35/12 10/36/12
f 2/37/13 8/38/13 6/39/13
f 18/40/7 24/41/7 20/42/7
f 19/43/8 21/44/8 17/45/8
f 20/46/11 23/47/11 19/48/11
f 17/49/12 22/50/12 18/51/12
f 26/52/11 29/53/11 25/54/11
f 25/54/7 31/55/7 27/56/7
f 27/57/12 32/58/12 28/59/12
f 28/59/8 30/60/8 26/61/8
f 40/62/14 35/63/14 36/64/14
f 34/65/15 37/66/15 38/67/15
f 38/68/16 39/69/16 40/70/16
f 36/71/17 33/72/17 34/73/17
f 48/74/8 42/75/8 44/76/8
f 45/77/7 43/78/7 41/79/7
f 47/80/12 44/76/12 43/78/12
f 46/81/11 41/79/11 42/75/11
f 40/82/18 34/83/18 38/84/18
f 27/85/18 26/86/18 25/87/18
f 3/1/1 7/88/1 8/2/1
f 5/4/2 1/89/2 2/5/2
f 7/7/3 5/90/3 6/8/3
f 1/10/4 3/91/4 4/11/4
f 5/13/5 11/92/5 9/14/5
f 1/16/6 9/93/6 10/17/6
f 10/19/7 14/94/7 16/20/7
f 11/22/8 15/95/8 13/23/8
f 3/25/9 10/96/9 12/26/9
f 7/28/10 12/97/10 11/29/10
f 12/31/11 16/98/11 15/32/11
f 9/34/12 13/99/12 14/35/12
f 2/37/13 4/100/13 8/38/13
f 18/40/7 22/101/7 24/41/7
f 19/43/8 23/102/8 21/44/8
f 20/46/11 24/103/11 23/47/11
f 17/49/12 21/104/12 22/50/12
f 26/52/11 30/105/11 29/53/11
f 25/54/7 29/53/7 31/55/7
f 27/57/12 31/106/12 32/58/12
f 28/59/8 32/58/8 30/60/8
f 40/62/14 39/107/14 35/63/14
f 34/65/15 33/108/15 37/66/15
f 38/68/16 37/109/16 39/69/16
f 36/71/17 35/110/17 33/72/17
f 48/74/8 46/81/8 42/75/8
f 45/77/7 47/80/7 43/78/7
f 47/80/12 48/74/12 44/76/12
f 46/81/11 45/77/11 41/79/11
f 40/82/18 36/111/18 34/83/18
f 27/85/18 28/112/18 26/86/18
