# Blender v2.82 (sub 7) OBJ File: 'rocket.blend'
# www.blender.org
o fire_rocket
mtllib fire_rocket.mtl
usemtl fire_rocket_texture
v -0.000000 0.078918 0.062500
v 0.078918 0.000000 0.062500
v -0.000000 0.047351 -0.116072
v 0.047351 -0.000000 -0.116072
v -0.078918 -0.000000 0.062500
v -0.000000 -0.078918 0.062500
v -0.047351 -0.000000 -0.116072
v -0.000000 -0.047351 -0.116072
v 0.000000 0.110486 0.001116
v 0.110486 0.000000 0.001116
v -0.110486 -0.000000 0.001116
v -0.000000 -0.110486 0.001116
v 0.000000 0.047351 0.062500
v 0.047351 0.000000 0.062500
v -0.047351 -0.000000 0.062500
v -0.000000 -0.047351 0.062500
v -0.000000 0.047351 -0.061607
v 0.047351 -0.000000 -0.061607
v -0.047351 -0.000000 -0.061607
v -0.000000 -0.047351 -0.061607
v -0.000000 -0.078918 0.062500
v -0.000000 0.078918 0.062500
v 0.078918 0.000000 0.062500
v -0.000000 0.047351 -0.116072
v 0.047351 -0.000000 -0.116072
v -0.078918 -0.000000 0.062500
v -0.000000 -0.078918 0.062500
v -0.047351 -0.000000 -0.116072
v -0.000000 -0.047351 -0.116072
v 0.000000 0.110486 0.001116
v 0.110486 0.000000 0.001116
v -0.110486 -0.000000 0.001116
v -0.000000 -0.110486 0.001116
v -0.000000 0.078918 0.062500
v 0.078918 0.000000 0.062500
v -0.000000 0.047351 -0.116072
v 0.047351 -0.000000 -0.116072
v -0.078918 -0.000000 0.062500
v -0.000000 -0.078918 0.062500
v -0.047351 -0.000000 -0.116072
v -0.000000 -0.047351 -0.116072
v 0.000000 0.110486 0.001116
v 0.110486 0.000000 0.001116
v -0.110486 -0.000000 0.001116
v -0.000000 -0.110486 0.001116
v -0.017292 0.065673 -0.000000
vt 0.218726 0.843900
vt 0.000000 0.843900
vt 0.031229 0.750094
vt 0.187589 0.750094
vt 0.000000 0.843900
vt 0.031229 0.750094
vt 0.187589 0.750094
vt 0.218726 0.843900
vt 0.156391 0.999991
vt 0.062489 0.999991
vt 0.218726 0.843900
vt 0.187589 0.750094
vt 0.156391 0.999991
vt 0.000000 0.843900
vt 0.062489 0.999991
vt 0.156391 0.999991
vt 0.062489 0.999991
vt 0.000021 0.749964
vt 0.093671 0.749964
vt 0.093671 0.656314
vt 0.000021 0.656314
vt 0.031229 0.750094
vt 0.093700 0.499950
vt 0.000050 0.499950
vt 0.000050 0.406300
vt 0.093700 0.406300
vt 0.093750 0.500000
vt 0.093750 0.312500
vt 0.187500 0.312500
vt 0.187500 0.500000
vt 0.281250 0.312500
vt 0.281250 0.500000
vt 0.093750 0.500000
vt 0.093750 0.312500
vt 0.187500 0.312500
vt 0.187500 0.500000
vt 0.093750 0.500000
vt 0.000000 0.500000
vt 0.000000 0.312500
vt 0.187550 0.312550
vt 0.281200 0.312550
vt 0.281200 0.406200
vt 0.187550 0.406200
vt 0.000021 0.656214
vt 0.000021 0.500064
vt 0.156171 0.500064
vt 0.156171 0.656214
vt 0.218726 0.843900
vt 0.000000 0.843900
vt 0.031229 0.750094
vt 0.187589 0.750094
vt 0.000000 0.843900
vt 0.218726 0.843900
vt 0.187589 0.750094
vt 0.031229 0.750094
vt 0.062489 0.999991
vt 0.156391 0.999991
vt 0.156391 0.999991
vt 0.062489 0.999991
vn -0.6645 -0.6645 -0.3417
vn -0.6645 0.6645 -0.3417
vn -0.6608 0.6608 0.3560
vn 0.6645 0.6645 -0.3417
vn 0.6608 0.6608 0.3560
vn 0.6608 -0.6608 0.3560
vn -0.6608 -0.6608 0.3560
vn -0.0000 -0.0000 1.0000
vn 0.6645 -0.6645 -0.3417
vn 0.7071 0.7071 -0.0000
vn 0.7071 -0.7071 0.0000
vn -0.7071 -0.7071 0.0000
vn -0.7071 0.7071 -0.0000
vn 0.0000 0.0000 -1.0000
f 9/1/1 10/2/1 2/3/1 1/4/1
f 12/5/2 6/6/2 2/7/2 10/8/2
f 10/8/3 4/9/3 8/10/3 12/5/3
f 12/5/4 11/11/4 5/12/4 6/6/4
f 11/11/5 12/5/5 8/10/5 7/13/5
f 11/14/6 7/15/6 3/16/6 9/1/6
f 10/2/7 9/1/7 3/16/7 4/17/7
f 4/18/8 3/19/8 7/20/8 8/21/8
f 9/1/9 1/4/9 5/22/9 11/14/9
f 14/23/8 13/24/8 15/25/8 16/26/8
f 17/27/10 13/28/10 14/29/10 18/30/10
f 18/30/11 14/29/11 16/31/11 20/32/11
f 15/33/12 19/34/12 20/35/12 16/36/12
f 17/37/13 19/38/13 15/39/13 13/28/13
f 18/40/14 20/41/14 19/42/14 17/43/14
f 6/44/14 5/45/14 1/46/14 2/47/14
f 30/48/1 31/49/1 23/50/1 22/51/1
f 33/52/4 32/53/4 26/54/4 27/55/4
f 32/53/5 33/52/5 29/56/5 28/57/5
f 31/49/7 30/48/7 24/58/7 25/59/7
