# Blender v2.82 (sub 7) OBJ File: 'ice.blend'
# www.blender.org
mtllib ice_shard.mtl
usemtl ice_shard_texture
o ice_shard
v 0.044194 -0.025599 0.046076
v 0.044194 0.025598 0.081924
v -0.000000 -0.000250 -0.248564
v 0.000000 0.050947 0.045723
v -0.000000 -0.050947 0.082277
v 0.000000 0.000250 0.149376
v -0.044194 -0.025598 0.046076
v -0.044194 0.025599 0.081924
vt 0.470654 0.734498
vt 0.312686 0.505224
vt 0.468717 0.375332
vt 0.312686 0.129973
vt 0.468711 0.000332
vt 0.470648 0.359499
vt 0.007881 0.890197
vt 0.155646 0.000206
vt 0.154235 1.000000
vt 0.300519 0.890111
vt 0.842426 1.000000
vt 0.695333 0.890838
vt 0.840341 0.000107
vt 0.152841 0.000107
vt 0.301256 0.889902
vt 0.154926 1.000000
vt 0.007833 0.889902
vt 0.156247 0.000107
vt 0.154162 1.000000
vt 0.841662 1.000000
vt 0.843747 0.000107
vt 0.988756 0.890838
vt 0.312886 0.505175
vt 0.469026 0.375332
vt 0.470832 0.731398
vt 0.614311 0.509994
vt 0.470937 0.731328
vt 0.468996 0.375449
vt 0.624969 0.137758
vt 0.470763 0.359428
vt 0.468680 0.000449
vt 0.624969 0.512840
vt 0.471097 0.734428
vt 0.469014 0.375448
vn 0.6899 -0.5755 0.4391
vn 0.1535 0.8877 0.4342
vn -0.4049 -0.9038 -0.1385
vn 0.4049 -0.9038 -0.1385
vn 0.9854 0.0976 -0.1394
vn 0.5765 0.8050 -0.1401
vn -0.5765 0.8050 -0.1401
vn -0.9854 0.0976 -0.1394
vn -0.8449 -0.3069 0.4382
vn -0.6899 -0.5755 0.4391
vn 0.8449 -0.3069 0.4382
vn -0.1535 0.8877 0.4342
f 6/1/1 5/2/1 1/3/1
f 2/4/2 4/5/2 6/6/2
f 7/7/3 3/8/3 5/9/3
f 1/10/4 5/9/4 3/8/4
f 2/11/5 1/12/5 3/13/5
f 3/14/6 4/15/6 2/16/6
f 4/17/7 3/18/7 8/19/7
f 8/20/8 3/21/8 7/22/8
f 8/23/9 7/24/9 6/25/9
f 5/26/10 6/27/10 7/28/10
f 2/29/11 6/30/11 1/31/11
f 8/32/12 6/33/12 4/34/12
